<?xml version="1.0" standalone="no"?>
<!DOCTYPE svg PUBLIC "-//W3C//DTD SVG 20010904//EN"
 "http://www.w3.org/TR/2001/REC-SVG-20010904/DTD/svg10.dtd">
<svg version="1.0" xmlns="http://www.w3.org/2000/svg"
 width="260.000000pt" height="260.000000pt" viewBox="0 0 260.000000 260.000000"
 preserveAspectRatio="xMidYMid meet">
<metadata>
Created by potrace 1.14, written by Peter Selinger 2001-2017
</metadata>
<g transform="translate(0.000000,260.000000) scale(0.100000,-0.100000)"
fill="#000000" stroke="none">
<path d="M1091 2544 c-94 -19 -161 -53 -203 -104 -21 -26 -56 -51 -97 -70
-218 -101 -465 -341 -576 -560 -90 -180 -120 -316 -120 -555 1 -161 4 -191 27
-285 15 -58 42 -142 61 -188 37 -86 139 -246 206 -321 l39 -44 43 30 c24 16
60 39 80 51 l37 22 -25 -60 c-27 -69 -63 -202 -63 -237 0 -37 29 -41 54 -8 28
39 82 92 105 105 39 20 69 12 102 -30 18 -22 52 -51 75 -65 23 -14 58 -43 77
-65 36 -43 47 -49 47 -26 0 25 -49 74 -110 111 -53 32 -61 42 -79 93 -26 70
-34 85 -50 90 -13 4 -90 -70 -154 -148 l-37 -45 7 35 c28 148 235 529 331 607
l40 32 5 -33 c3 -20 -3 -57 -14 -92 -37 -110 -66 -404 -40 -404 5 0 11 7 13
15 2 8 42 -50 90 -128 47 -78 96 -151 108 -162 l22 -20 -15 36 c-8 20 -57 106
-108 190 -76 126 -92 160 -91 189 5 69 8 69 88 -9 112 -107 212 -145 379 -144
68 0 104 6 147 22 66 26 152 99 195 166 15 25 31 45 34 45 10 0 29 -75 29
-113 0 -51 -48 -176 -108 -282 -54 -96 -58 -122 -11 -65 42 50 104 173 130
260 19 65 21 81 11 127 -14 66 -82 212 -110 237 -33 29 -28 62 11 82 17 9 44
28 59 41 l26 25 51 -47 c99 -93 226 -275 311 -445 l32 -65 -28 26 c-47 42 -92
70 -132 81 -20 6 -50 21 -65 34 -43 36 -59 32 -51 -15 10 -64 -20 -136 -85
-206 -60 -64 -100 -129 -87 -142 4 -4 18 5 29 21 12 16 52 60 89 97 44 44 77
88 92 124 23 50 28 55 56 55 39 0 72 -17 135 -69 95 -78 96 -51 7 129 -31 63
-58 119 -60 123 -5 11 96 -35 146 -66 23 -15 46 -27 51 -27 5 0 33 37 64 82
154 231 214 447 204 728 -16 410 -201 731 -575 996 -2 1 6 21 18 45 25 47 29
123 11 158 -16 28 -31 27 -58 -6 -16 -21 -22 -24 -23 -12 0 24 -22 29 -51 13
-35 -20 -124 -17 -204 6 -138 41 -204 50 -338 49 -73 0 -165 -7 -206 -15z
m434 -53 l30 -11 -35 6 c-19 4 -105 10 -190 14 l-155 8 160 -3 c88 -2 174 -8
190 -14z m-466 -5 c-8 -8 -79 -35 -79 -30 0 6 60 33 74 34 5 0 7 -2 5 -4z
m583 -27 c54 -17 86 -20 141 -16 67 4 69 4 43 -10 -42 -22 -147 -12 -216 20
-68 32 -59 33 32 6z m-672 -13 c0 -2 -8 -10 -17 -17 -16 -13 -17 -12 -4 4 13
16 21 21 21 13z m415 -22 c-27 -7 -61 -13 -75 -13 -35 1 56 27 95 27 24 0 19
-3 -20 -14z m-472 -50 c-10 -19 -19 -31 -21 -24 -4 10 24 60 33 60 3 0 -3 -16
-12 -36z m332 18 c-6 -4 -24 -18 -40 -32 -29 -24 -29 -23 2 8 18 17 36 32 40
32 4 0 3 -3 -2 -8z m253 -27 c-53 -8 -106 -19 -118 -25 -12 -6 -24 -9 -26 -7
-4 4 36 21 96 41 8 2 44 4 80 4 64 0 64 0 -32 -13z m391 -71 c83 -70 91 -81
90 -125 l-1 -44 -7 36 c-10 49 -47 98 -88 115 -19 8 -31 19 -28 24 8 13 12 13
34 -6z m151 -331 c0 -19 0 -19 -28 32 l-23 40 26 -28 c14 -15 25 -35 25 -44z
m-744 -113 c138 -68 267 -110 341 -110 18 0 65 17 108 40 l76 40 9 -26 c6 -14
10 -27 10 -29 0 -2 -19 -6 -41 -10 -56 -10 -147 -53 -162 -76 -10 -16 -24 -19
-105 -19 -84 0 -93 2 -88 18 10 33 -9 45 -81 49 -37 2 -94 8 -125 14 -55 9
-60 8 -127 -25 -38 -20 -72 -40 -76 -46 -3 -5 -20 -10 -36 -10 l-29 0 19 38
c11 20 35 53 55 71 20 19 36 42 36 50 0 8 -14 29 -31 47 l-31 32 31 7 c17 3
34 11 37 17 12 18 67 -1 210 -72z m-622 -156 c14 -15 35 -53 47 -85 15 -39 31
-65 50 -76 15 -10 41 -36 57 -58 16 -22 63 -71 105 -109 l77 -68 193 11 c241
14 260 19 305 89 l34 54 39 -71 c21 -40 39 -84 39 -99 0 -32 -25 -72 -46 -72
-8 0 -14 -4 -14 -10 0 -17 49 -11 69 9 20 20 33 69 28 106 -2 18 6 21 98 27
55 3 102 4 104 2 2 -2 -16 -48 -42 -101 -29 -64 -53 -135 -68 -203 -29 -137
-30 -141 -75 -172 -75 -51 -255 -61 -418 -23 -199 46 -370 194 -401 345 -23
118 -36 134 -67 80 -34 -60 -102 -25 -91 46 5 31 0 40 -46 89 -29 30 -58 70
-66 90 -30 69 -12 188 32 214 25 15 27 14 57 -15z m1332 -139 c-8 -113 -17
-140 -48 -148 -38 -10 -263 -20 -290 -14 -14 4 -33 23 -47 47 -39 70 -99 64
-146 -17 -15 -24 -35 -45 -48 -48 -34 -8 -272 -25 -347 -25 -49 0 -69 4 -73
14 -3 8 -32 32 -64 54 -32 22 -84 64 -114 95 l-56 55 25 11 c13 7 63 21 109
31 75 18 125 20 486 21 221 1 434 5 472 9 39 4 88 8 109 8 l39 2 -7 -95z
m-885 -755 c30 -24 48 -37 40 -27 -17 21 -6 21 50 1 65 -23 208 -54 254 -54
23 0 58 9 80 20 22 11 43 20 47 20 4 0 8 -19 10 -42 4 -49 20 -59 34 -21 l11
28 23 -47 23 -46 -28 -48 c-94 -160 -242 -226 -435 -194 -95 15 -169 48 -236
105 -78 67 -98 104 -90 168 10 72 17 97 27 97 5 0 9 -8 9 -18 0 -10 7 -27 15
-38 14 -18 14 -18 14 6 0 14 -6 76 -13 137 l-12 113 61 -58 c34 -31 86 -77
116 -102z"/>
<path d="M610 1591 c-15 -30 -12 -49 10 -61 11 -6 23 -23 26 -38 9 -36 44
-105 58 -114 6 -4 20 -8 30 -8 17 0 16 3 -8 25 -32 29 -32 39 -4 59 21 15 21
16 4 60 -34 88 -90 125 -116 77z"/>
<path d="M1428 1303 c6 -2 18 -2 25 0 6 3 1 5 -13 5 -14 0 -19 -2 -12 -5z"/>
<path d="M1385 1266 c-11 -25 6 -50 36 -54 l24 -3 -22 15 c-12 9 -23 26 -26
39 -3 20 -4 21 -12 3z"/>
<path d="M1446 1241 c-3 -5 11 -11 31 -14 40 -7 49 -4 38 12 -7 13 -62 15 -69
2z"/>
<path d="M1705 1220 c15 -16 15 -22 5 -35 -10 -12 -10 -15 3 -15 9 0 22 10 28
22 10 18 8 24 -7 35 -10 7 -24 13 -32 13 -12 0 -12 -4 3 -20z"/>
<path d="M1186 1199 c-29 -23 -35 -45 -10 -35 9 3 30 -2 48 -13 70 -42 136
-56 261 -55 91 0 128 4 155 17 34 16 32 16 -91 10 -135 -6 -238 9 -309 47
l-35 18 27 7 c16 4 25 11 22 16 -9 15 -40 10 -68 -12z"/>
<path d="M980 1181 c0 -16 7 -34 15 -41 13 -11 15 -8 15 13 0 32 -9 57 -21 57
-5 0 -9 -13 -9 -29z"/>
<path d="M1540 953 c-23 -10 -50 -13 -80 -9 -42 5 -44 4 -25 -10 31 -23 155
-3 155 26 0 13 -7 12 -50 -7z"/>
<path d="M1752 1621 c-75 -7 -96 -26 -105 -95 -13 -93 23 -122 133 -112 100
10 135 22 148 51 16 34 15 138 0 153 -12 12 -67 13 -176 3z"/>
<path d="M1007 1603 c-4 -3 -6 -49 -6 -102 l2 -96 8 100 c7 103 7 110 -4 98z"/>
<path d="M1140 1597 c-23 -12 -25 -19 -28 -94 -4 -116 -2 -118 158 -109 152 8
160 13 167 108 5 61 4 66 -22 86 -25 20 -40 22 -139 22 -69 0 -120 -5 -136
-13z m257 -22 c33 -11 21 -136 -14 -150 -9 -3 -58 -8 -108 -12 -116 -7 -130
-1 -138 67 -9 78 2 98 60 103 49 4 178 -1 200 -8z"/>
<path d="M1020 345 c34 -41 248 -91 349 -81 92 8 200 40 225 66 l21 22 -44
-22 c-135 -67 -367 -63 -510 9 -48 25 -58 26 -41 6z"/>
</g>
</svg>
